<svg width="590" height="217" viewBox="0 0 590 217" fill="none" xmlns="http://www.w3.org/2000/svg">
<path d="M340.8 148.72L293.52 85.6L300.72 83.56V148.72H285V67H299.04L345.24 128.68L339.12 129.52V67H354.84V148.72H340.8ZM395.373 149.92C389.533 149.92 384.413 148.68 380.013 146.2C375.613 143.64 372.213 140.08 369.813 135.52C367.413 130.96 366.213 125.6 366.213 119.44C366.213 113.36 367.413 108.04 369.813 103.48C372.213 98.84 375.613 95.24 380.013 92.68C384.413 90.04 389.533 88.72 395.373 88.72C401.293 88.72 406.413 90.04 410.733 92.68C415.133 95.32 418.533 98.96 420.933 103.6C423.333 108.16 424.533 113.4 424.533 119.32C424.533 120.2 424.493 121.08 424.413 121.96C424.413 122.76 424.333 123.44 424.173 124H379.053V112.24H412.293L409.893 117.88C409.893 112.92 408.693 108.88 406.293 105.76C403.973 102.64 400.333 101.08 395.373 101.08C391.053 101.08 387.573 102.44 384.933 105.16C382.293 107.8 380.973 111.36 380.973 115.84V122.2C380.973 126.92 382.293 130.64 384.933 133.36C387.653 136 391.333 137.32 395.973 137.32C400.053 137.32 403.253 136.48 405.573 134.8C407.893 133.12 409.893 131.04 411.573 128.56L422.493 134.8C419.853 139.68 416.253 143.44 411.693 146.08C407.213 148.64 401.773 149.92 395.373 149.92ZM461.266 150.16C455.186 150.16 449.826 148.88 445.186 146.32C440.626 143.68 437.066 140.08 434.506 135.52C431.946 130.88 430.666 125.52 430.666 119.44C430.666 113.36 431.946 108.04 434.506 103.48C437.066 98.84 440.626 95.24 445.186 92.68C449.826 90.04 455.186 88.72 461.266 88.72C467.346 88.72 472.666 90.04 477.226 92.68C481.866 95.24 485.466 98.84 488.026 103.48C490.586 108.04 491.866 113.36 491.866 119.44C491.866 125.52 490.586 130.88 488.026 135.52C485.466 140.08 481.866 143.68 477.226 146.32C472.666 148.88 467.346 150.16 461.266 150.16ZM461.266 134.92C465.586 134.92 469.106 133.48 471.826 130.6C474.546 127.72 475.906 124 475.906 119.44C475.906 114.8 474.546 111.04 471.826 108.16C469.106 105.28 465.586 103.84 461.266 103.84C456.946 103.84 453.426 105.28 450.706 108.16C448.066 110.96 446.746 114.68 446.746 119.32C446.746 123.96 448.066 127.72 450.706 130.6C453.426 133.48 456.946 134.92 461.266 134.92ZM501.294 148.72V90.04H513.054L516.294 101.32L511.254 101.08C513.334 98.68 515.614 96.56 518.094 94.72C520.574 92.88 523.254 91.44 526.134 90.4C529.094 89.28 532.174 88.72 535.374 88.72C539.374 88.72 542.574 89.4 544.974 90.76C547.374 92.12 549.134 93.96 550.254 96.28C551.454 98.6 552.254 101.24 552.654 104.2C553.134 107.08 553.374 110.08 553.374 113.2V148.72H537.654V113.08C537.654 109.48 536.934 107.08 535.494 105.88C534.054 104.68 532.334 104.08 530.334 104.08C527.454 104.08 524.654 104.96 521.934 106.72C519.214 108.4 516.934 110.56 515.094 113.2L513.054 105.04H517.014V148.72H501.294ZM573.894 148.72V113.08C573.894 109.48 573.174 107.08 571.734 105.88C570.374 104.68 568.694 104.08 566.694 104.08C563.814 104.08 561.014 104.96 558.294 106.72C555.574 108.4 553.294 110.56 551.454 113.2L547.494 101.08C549.574 98.68 551.854 96.56 554.334 94.72C556.894 92.88 559.614 91.44 562.494 90.4C565.454 89.28 568.534 88.72 571.734 88.72C575.654 88.72 578.814 89.4 581.214 90.76C583.614 92.12 585.414 93.96 586.614 96.28C587.814 98.6 588.614 101.24 589.014 104.2C589.494 107.08 589.734 110.08 589.734 113.2V148.72H573.894Z" fill="#212529"/>
<g clip-path="url(#clip0_1316_75153)">
<path fill-rule="evenodd" clip-rule="evenodd" d="M0 0L57.6387 0L144.568 55.5171V101.378L39.1026 35.6729V217H0V0Z" fill="#212529"/>
<path fill-rule="evenodd" clip-rule="evenodd" d="M224.696 217L167.058 217L80.1279 161.483V115.622L185.594 181.327L185.594 0H224.696L224.696 217Z" fill="#212529"/>
</g>
<defs>
<clipPath id="clip0_1316_75153">
<rect width="225" height="217" fill="white"/>
</clipPath>
</defs>
</svg>
